<svg width="1065" height="1065" viewBox="0 0 1065 1065" fill="none" xmlns="http://www.w3.org/2000/svg">
<path d="M491.522 136.453C494.019 136.453 497.139 137.701 499.843 141.445C487.778 124.181 513.363 131.669 514.819 115.236C529.38 104.42 524.18 97.3477 528.34 96.9316L532.916 93.1875C523.972 96.5156 520.852 97.1396 518.355 97.1396H514.195C511.075 97.1396 505.875 97.7637 493.603 101.508C465.521 103.588 445.345 133.957 435.776 134.789C426 139.989 426.416 141.029 428.704 141.029C429.328 141.029 430.16 140.821 430.992 140.821C431.824 140.821 432.448 140.613 433.072 140.613C435.36 140.613 434.736 141.653 421.424 147.894C424.544 148.726 398.127 160.374 397.919 178.679C397.087 185.751 399.999 190.535 404.783 190.535C408.943 190.535 414.144 187.415 419.76 179.511C438.48 157.878 478.002 155.798 495.059 142.693C484.45 141.861 486.53 136.453 491.522 136.453ZM396.463 143.733C394.591 143.733 397.087 141.445 399.791 139.157C402.703 136.869 406.031 134.581 406.031 134.581L405.823 134.789C417.056 130.421 410.191 129.381 416.224 126.469H415.808C414.56 126.469 416.848 124.805 418.928 122.933C421.008 121.269 422.88 119.396 421.008 119.396C419.968 119.396 417.264 120.021 412.688 121.893C414.144 119.812 419.76 118.356 427.664 113.988C416.224 117.732 407.279 120.021 406.239 120.021C405.407 120.021 410.191 118.356 424.544 113.988C425.168 113.988 425.792 114.196 426.208 114.196C427.664 114.196 428.288 113.78 428.08 113.364C427.872 112.948 427.04 112.74 425.584 112.74C404.991 114.404 389.599 127.301 394.175 128.965C396.879 128.133 398.751 127.717 399.999 127.717C402.703 127.717 401.455 130.005 396.047 133.333C398.543 139.157 354.445 154.134 349.453 159.542C351.949 158.086 353.613 157.67 354.445 157.67C357.773 157.67 353.405 164.118 349.037 167.238C351.741 169.734 353.821 170.566 355.485 170.566C359.854 170.566 361.726 164.534 365.47 162.662C366.302 164.326 367.134 165.158 368.174 165.158C371.71 165.158 376.078 156.422 379.614 151.846C380.654 152.886 381.902 153.718 383.566 153.718C386.895 153.718 391.887 151.014 399.791 143.317C398.127 143.525 396.879 143.733 396.463 143.733ZM348.621 182.007C341.133 186.583 337.181 188.455 335.517 188.455C332.396 188.455 336.557 182.631 340.301 176.599C344.045 170.774 347.373 164.95 342.589 164.95C340.301 164.95 336.141 166.198 329.484 169.526C311.388 181.591 280.811 214.872 267.29 214.872H266.042C287.883 198.855 281.435 167.446 312.012 159.334C342.173 142.069 362.766 147.478 389.599 127.717C381.694 131.669 370.046 136.037 367.342 136.037C365.678 136.037 368.174 133.957 378.99 128.757C377.95 128.965 377.118 129.173 376.494 129.173C369.214 129.173 424.336 109.412 427.04 108.996C404.367 112.116 367.758 131.045 362.766 131.045C362.142 131.045 362.142 130.837 362.142 130.421C362.974 129.797 362.974 129.381 362.142 129.381C359.438 129.381 348.205 133.125 336.765 136.869C325.532 140.613 314.092 144.565 311.596 144.565C310.764 144.565 310.764 144.149 312.012 143.317C213.832 199.063 131.877 293.083 106.292 404.575C116.9 428.912 109.62 475.298 127.093 488.818C147.062 505.667 110.036 554.549 119.812 584.71C129.797 639.208 172.854 676.441 177.431 732.188C185.335 770.461 214.248 817.263 226.312 841.6C235.465 850.752 260.634 877.169 265.002 877.169C266.666 877.169 265.626 873.217 258.97 862.608C254.81 850.752 230.681 819.759 242.329 819.759C242.953 819.759 243.577 819.759 244.409 819.967C230.057 805.406 276.234 809.358 243.993 789.598C240.249 785.021 239.417 783.565 240.249 783.565C241.289 783.565 244.201 785.229 247.529 786.894C251.065 788.558 255.226 790.222 258.554 790.222C263.754 790.222 267.29 786.686 265.21 773.789C266.042 774.205 266.874 774.205 267.498 774.205C272.906 774.205 271.034 763.597 271.45 752.988C271.866 742.38 274.57 731.771 289.131 731.771C290.795 731.771 292.667 731.979 294.539 732.188C328.236 713.883 298.907 663.337 337.597 644.824C336.141 602.807 279.771 600.727 258.554 583.67C255.018 585.75 251.689 586.374 248.361 586.374C244.617 586.374 241.289 585.542 238.377 584.502C235.465 583.67 232.761 582.63 230.889 582.63C230.473 582.63 230.057 582.63 229.641 582.838C265.834 573.27 239.417 522.932 209.464 522.932H207.384C205.096 501.091 193.863 509.411 192.615 491.314C190.743 492.354 188.871 492.771 186.999 492.771C182.007 492.771 177.431 489.234 173.479 485.906C169.526 482.37 166.198 479.042 163.286 479.042C160.998 479.042 158.918 481.33 157.046 487.986C159.126 477.794 158.502 474.466 156.422 474.466C154.342 474.466 150.598 478.002 146.438 481.538C142.485 485.074 137.909 488.61 134.373 488.61H133.333C108.996 471.346 133.541 440.769 120.645 417.264C128.965 408.319 132.293 393.135 128.549 393.135C126.677 393.135 122.933 396.879 117.108 407.071C108.788 385.854 130.837 337.805 149.558 335.101C150.182 335.101 150.598 334.893 151.222 334.893C154.55 334.893 157.878 336.557 160.79 340.093C162.454 349.869 158.294 370.462 159.958 370.462C160.79 370.462 162.454 366.302 166.614 355.485C172.022 330.732 209.88 312.844 213.832 297.659C214.04 297.867 214.04 297.867 214.248 297.867C218.616 297.867 246.697 273.114 258.97 270.41C263.754 265.626 267.082 263.962 269.578 263.962C272.282 263.962 273.738 266.042 274.778 267.914C275.818 269.994 276.65 271.866 277.69 271.866C278.522 271.866 279.562 270.618 281.435 267.082C274.986 254.394 291.627 242.329 287.051 242.329C285.387 242.329 280.395 243.993 270.202 248.153C268.538 248.985 267.706 249.193 267.29 249.193C266.042 249.193 271.034 245.865 278.314 242.537C285.595 239.209 294.747 235.881 302.443 235.881C306.188 235.881 309.516 236.713 312.012 238.793C344.253 231.097 326.572 220.488 328.236 220.488H328.652C337.805 215.08 335.101 194.695 348.621 182.007ZM204.472 267.082C204.056 267.082 205.928 264.378 212.168 256.682C225.064 247.113 235.465 240.665 223.608 234.425C228.809 232.137 233.801 229.433 238.585 226.521C238.377 236.713 229.849 261.466 225.272 261.466C224.232 261.466 223.192 260.01 222.776 256.89C225.48 252.105 225.688 250.233 224.648 250.233C222.984 250.233 218.2 254.394 213.624 258.762C209.048 262.714 204.888 267.082 204.472 267.082ZM216.328 272.698C210.712 272.698 211.752 269.162 229.017 265.626C236.505 264.586 230.681 265.002 239.625 262.922C230.889 269.994 221.112 272.698 216.328 272.698ZM539.78 251.689C542.276 251.273 544.148 251.273 545.604 251.273C551.637 251.273 548.933 253.77 545.396 256.266C541.86 258.762 537.492 261.258 539.988 261.258C541.444 261.258 545.396 260.426 553.509 258.138C594.486 255.226 537.492 220.488 546.645 208.84L544.148 208.008C527.3 229.433 555.381 229.849 539.78 251.689ZM522.724 252.521C525.636 252.521 529.38 249.193 533.332 239.833C538.74 233.385 536.452 232.553 530.628 229.433C514.611 233.593 516.067 252.521 522.724 252.521ZM666.249 318.46C665.625 318.46 665.209 318.668 664.793 318.876C666.457 319.292 668.121 319.708 669.785 319.708C668.121 318.876 667.081 318.46 666.249 318.46ZM945.604 370.254C949.14 377.95 951.012 381.07 951.22 381.07C952.676 381.07 925.011 313.676 913.57 301.611C853.872 203.432 755.692 128.341 643.784 100.26H643.576C640.664 100.26 643.992 101.716 647.944 103.172C651.896 104.628 656.681 106.084 656.681 106.084C656.681 106.084 653.561 105.044 643.992 102.34C633.384 99.2197 622.567 96.9316 611.543 96.0996C609.671 96.7236 657.097 115.444 688.922 125.221C678.313 121.893 667.289 118.98 664.585 118.98C662.713 118.98 664.585 120.229 672.281 123.557C662.921 120.853 658.969 119.604 658.553 119.604C657.929 119.604 671.033 123.973 683.306 128.341C695.786 132.709 707.643 137.077 704.314 137.077C703.482 137.077 701.194 136.661 697.658 136.037C708.267 141.861 712.011 144.149 711.387 144.149C710.347 144.149 697.242 137.909 683.722 131.669C670.409 125.429 656.889 119.188 655.017 119.188C653.977 119.188 656.681 121.269 665.833 126.677C678.313 132.085 690.794 137.493 687.258 137.493C685.594 137.493 680.81 136.453 671.449 133.749C692.25 144.357 656.681 140.197 668.745 154.55C662.089 148.31 659.385 146.229 658.761 146.229C658.137 146.229 659.801 148.726 661.465 151.222C663.129 153.718 664.377 156.214 662.921 156.214H662.505C677.065 172.022 652.312 157.878 669.993 172.022C656.681 165.99 634.008 156.006 644.2 156.006C646.696 156.006 651.48 156.63 658.969 158.294C645.448 142.485 607.175 141.861 606.343 139.989C596.774 140.613 596.566 147.894 598.23 161.206C598.022 182.215 577.43 182.631 580.134 194.695C580.134 194.487 580.342 194.487 580.342 194.487C580.758 194.487 580.966 198.647 582.214 203.016C583.67 207.176 586.166 211.544 591.574 211.544C594.486 211.544 598.23 210.296 602.807 207.176C609.255 218.824 615.079 222.984 619.655 222.984C626.52 222.984 630.68 213.624 630.264 205.096C622.775 200.936 612.999 166.406 623.815 166.406C625.479 166.406 627.56 167.238 630.264 169.11C613.415 210.504 696.826 182.839 649.608 201.768C660.217 215.704 642.952 215.08 647.944 231.929C639.832 234.217 630.888 236.297 622.983 236.297C611.335 236.297 602.391 231.305 603.431 213.832C588.87 221.528 617.991 247.529 589.078 247.529H587.414C573.478 273.114 521.268 264.378 562.245 291.419C564.533 303.275 557.045 305.355 547.477 305.355C544.98 305.355 542.276 305.147 539.572 304.939C536.868 304.731 534.164 304.731 531.668 304.731C520.852 304.731 513.155 307.436 519.812 324.284C515.027 341.757 526.26 349.453 539.988 349.453C556.629 349.453 577.014 338.637 578.47 320.748C587.414 307.228 598.854 301.611 610.711 301.611C629.432 301.611 649.192 315.756 662.089 333.229C663.129 334.893 663.961 335.517 664.377 335.517C665.417 335.517 664.377 331.356 663.961 327.196C663.545 323.868 663.545 320.54 664.793 319.5C646.28 314.3 632.136 291.835 638.376 291.835C640.456 291.835 644.824 294.331 651.896 300.987H652.937C664.585 300.987 673.737 310.14 680.81 319.292C688.09 328.444 693.498 337.597 698.282 337.597C700.154 337.597 702.026 335.933 703.69 332.188C702.858 330.94 700.778 327.404 699.738 323.868C698.49 319.5 698.49 315.132 704.106 315.132C706.395 315.132 709.515 315.964 713.883 317.628C728.027 313.884 704.938 277.066 723.659 277.066C725.531 277.066 727.819 277.482 730.731 278.314C730.523 284.763 733.436 287.051 736.14 287.051C741.548 287.051 746.956 279.354 733.852 277.066C738.844 272.282 741.756 270.41 743.836 270.41C751.116 270.41 745.292 294.539 770.461 294.539C778.989 314.716 696.41 295.995 722.827 334.685C728.859 339.053 736.348 339.885 743.628 339.885C745.916 339.885 747.996 339.885 750.076 339.677C752.156 339.677 754.236 339.469 756.108 339.469C769.005 339.469 778.157 342.589 772.541 369.214C765.677 374.206 757.98 375.87 750.076 375.87C743.004 375.87 735.932 374.622 729.067 373.374C722.203 372.126 715.547 370.878 709.515 370.878C700.154 370.878 692.666 373.998 688.09 384.814C663.753 374.83 631.72 374.414 634.84 344.253C592.406 350.285 548.101 347.165 516.899 373.166C515.027 411.231 449.713 423.504 465.521 466.77C446.593 506.707 488.402 562.661 531.044 562.661C532.5 562.661 534.164 562.661 535.62 562.453C558.917 562.245 582.422 551.845 603.015 551.845C613.623 551.845 623.191 554.549 631.512 562.869C633.384 562.661 635.048 562.453 636.504 562.453C668.329 562.453 626.312 612.999 664.377 621.527C698.906 657.305 643.16 694.122 670.409 728.443C673.321 755.276 686.634 777.741 686.634 803.95C690.17 804.366 693.498 804.574 697.034 804.574C740.924 804.574 768.381 766.301 794.174 737.388C786.27 694.122 855.536 685.594 831.823 637.128C820.799 584.086 884.033 552.677 880.497 499.635C881.121 492.146 879.041 489.858 875.921 489.858C872.801 489.858 868.225 492.146 863.856 494.227C859.28 496.515 854.288 498.595 850.336 498.595C845.136 498.595 841.184 495.059 840.768 483.41C810.19 454.913 796.254 416.224 767.757 384.814C804.782 402.703 825.791 443.057 842.848 479.666C844.304 480.082 845.76 480.29 847.424 480.29C877.585 480.29 919.603 408.111 873.841 390.639C871.345 397.503 868.017 399.999 864.064 399.999C857.2 399.999 849.296 391.679 843.68 383.566C838.063 375.246 835.151 366.926 838.271 366.926C840.352 366.926 844.928 370.254 852.832 378.99C861.776 384.606 870.513 386.062 879.665 386.062C888.609 386.062 897.762 384.606 907.33 383.774C919.395 388.559 924.595 403.951 928.339 403.951C928.963 403.951 929.795 403.327 930.419 401.871C939.987 424.752 951.012 465.521 960.996 476.546C955.796 441.601 954.548 404.575 945.604 370.254ZM829.535 322.204C806.03 316.172 798.334 287.051 779.821 270.202C779.613 265.626 786.478 266.458 784.813 258.762C809.774 266.458 801.662 274.154 799.374 275.61C808.526 290.795 834.111 301.195 829.535 322.204ZM506.499 163.91C483.826 170.566 480.706 163.286 484.658 177.223C486.322 178.471 489.442 178.887 492.562 178.887C503.587 179.095 518.563 172.646 506.499 163.91ZM839.52 736.972C869.265 711.803 873.009 681.85 874.465 651.48C861.152 677.481 821.631 706.187 839.52 736.972ZM704.106 331.356C703.898 331.564 703.898 331.564 703.898 331.772C704.106 332.188 704.314 332.188 704.314 332.188C704.314 332.188 704.314 331.98 704.106 331.356ZM531.044 24.5C236.921 24.5 23.5 263.962 23.5 532.5C23.5 826.623 267.29 1041.5 532.5 1041.5C826.623 1041.5 1040.5 790.222 1040.5 532.5C1032.5 251 825.167 24.5 531.044 24.5ZM532.5 1024.02C261.05 1024.02 40.9775 803.95 40.9775 532.5C40.9775 261.05 261.05 40.9775 532.5 40.9775C803.95 40.9775 1024.02 261.05 1024.02 532.5C1024.02 803.95 803.95 1024.02 532.5 1024.02Z" fill="#0099DB" fill-opacity="0.07"/>
</svg>
