<svg width="11" height="10" viewBox="0 0 11 10" fill="none" xmlns="http://www.w3.org/2000/svg">
<path fill-rule="evenodd" clip-rule="evenodd" d="M0 5.00006C0 4.8343 0.0658482 4.67533 0.183058 4.55812C0.300269 4.44091 0.45924 4.37506 0.625 4.37506H7.86625L5.1825 1.69256C5.06514 1.5752 4.99921 1.41603 4.99921 1.25006C4.99921 1.08409 5.06514 0.924916 5.1825 0.807557C5.29986 0.690199 5.45903 0.624268 5.625 0.624268C5.79097 0.624268 5.95014 0.690199 6.0675 0.807557L9.8175 4.55756C9.87571 4.61561 9.92188 4.68458 9.95339 4.76052C9.9849 4.83645 10.0011 4.91785 10.0011 5.00006C10.0011 5.08227 9.9849 5.16367 9.95339 5.2396C9.92188 5.31553 9.87571 5.3845 9.8175 5.44256L6.0675 9.19256C5.95014 9.30992 5.79097 9.37585 5.625 9.37585C5.45903 9.37585 5.29986 9.30992 5.1825 9.19256C5.06514 9.0752 4.99921 8.91603 4.99921 8.75006C4.99921 8.58409 5.06514 8.42492 5.1825 8.30756L7.86625 5.62506H0.625C0.45924 5.62506 0.300269 5.55921 0.183058 5.442C0.0658482 5.32479 0 5.16582 0 5.00006Z" fill="#61BBE4"/>
</svg>
