<svg width="17" height="17" viewBox="0 0 17 17" fill="none" xmlns="http://www.w3.org/2000/svg">
<path fill-rule="evenodd" clip-rule="evenodd" d="M0.708008 2.01026C0.708008 1.66497 0.845174 1.33382 1.08933 1.08967C1.33349 0.845511 1.66464 0.708345 2.00993 0.708345H14.988C15.1591 0.708066 15.3286 0.74154 15.4868 0.806851C15.6449 0.872162 15.7887 0.968027 15.9097 1.08896C16.0308 1.20989 16.1268 1.35351 16.1923 1.5116C16.2578 1.66969 16.2914 1.83915 16.2913 2.01026V14.9883C16.2915 15.1595 16.258 15.329 16.1926 15.4872C16.1272 15.6453 16.0313 15.7891 15.9103 15.9101C15.7893 16.0312 15.6456 16.1272 15.4875 16.1926C15.3294 16.2581 15.1599 16.2918 14.9887 16.2917H2.00993C1.8389 16.2917 1.66954 16.258 1.51154 16.1925C1.35354 16.127 1.20998 16.0311 1.08908 15.9101C0.968177 15.7891 0.872293 15.6455 0.806907 15.4875C0.741521 15.3295 0.707915 15.1601 0.708008 14.9891V2.01026ZM6.87618 6.64985H8.9863V7.70951C9.29088 7.10035 10.0701 6.5521 11.2409 6.5521C13.4856 6.5521 14.0176 7.76547 14.0176 9.99176V14.1157H11.746V10.4989C11.746 9.23101 11.4414 8.5156 10.6679 8.5156C9.59476 8.5156 9.14851 9.28697 9.14851 10.4989V14.1157H6.87618V6.64985ZM2.98034 14.0186H5.25268V6.5521H2.98034V14.0179V14.0186ZM5.5778 4.11685C5.58209 4.31141 5.54746 4.50486 5.47597 4.68586C5.40448 4.86686 5.29755 5.03175 5.16146 5.17087C5.02538 5.30998 4.86288 5.42051 4.6835 5.49598C4.50412 5.57144 4.31147 5.61031 4.11686 5.61031C3.92226 5.61031 3.72961 5.57144 3.55023 5.49598C3.37085 5.42051 3.20835 5.30998 3.07226 5.17087C2.93618 5.03175 2.82925 4.86686 2.75776 4.68586C2.68626 4.50486 2.65164 4.31141 2.65593 4.11685C2.66433 3.73495 2.82195 3.37153 3.09501 3.10442C3.36807 2.8373 3.73488 2.68772 4.11686 2.68772C4.49885 2.68772 4.86565 2.8373 5.13872 3.10442C5.41178 3.37153 5.56939 3.73495 5.5778 4.11685Z" fill="white"/>
</svg>
