<svg width="17" height="17" viewBox="0 0 17 17" fill="none" xmlns="http://www.w3.org/2000/svg">
<path fill-rule="evenodd" clip-rule="evenodd" d="M0.708496 2.01025C0.708496 1.66496 0.845662 1.33381 1.08982 1.08966C1.33398 0.8455 1.66512 0.708334 2.01041 0.708334H14.9885C15.1596 0.708054 15.3291 0.741528 15.4873 0.806839C15.6454 0.87215 15.7892 0.968016 15.9102 1.08895C16.0313 1.20988 16.1273 1.3535 16.1928 1.51159C16.2583 1.66968 16.2919 1.83913 16.2918 2.01025V14.9883C16.292 15.1595 16.2585 15.329 16.1931 15.4872C16.1277 15.6453 16.0317 15.789 15.9108 15.9101C15.7898 16.0311 15.6461 16.1272 15.488 16.1926C15.3298 16.2581 15.1604 16.2918 14.9892 16.2917H2.01041C1.83938 16.2917 1.67003 16.258 1.51203 16.1925C1.35403 16.127 1.21047 16.0311 1.08957 15.9101C0.968665 15.7891 0.872781 15.6455 0.807395 15.4875C0.74201 15.3294 0.708403 15.1601 0.708496 14.989V2.01025ZM6.87666 6.64983H8.98679V7.7095C9.29137 7.10033 10.0705 6.55208 11.2414 6.55208C13.4861 6.55208 14.0181 7.76546 14.0181 9.99175V14.1157H11.7465V10.4989C11.7465 9.231 11.4419 8.51558 10.6684 8.51558C9.59525 8.51558 9.149 9.28696 9.149 10.4989V14.1157H6.87666V6.64983ZM2.98083 14.0186H5.25316V6.55208H2.98083V14.0179V14.0186ZM5.57829 4.11683C5.58257 4.31139 5.54795 4.50485 5.47646 4.68585C5.40496 4.86685 5.29804 5.03174 5.16195 5.17086C5.02587 5.30997 4.86337 5.4205 4.68399 5.49596C4.5046 5.57142 4.31196 5.6103 4.11735 5.6103C3.92274 5.6103 3.7301 5.57142 3.55072 5.49596C3.37134 5.4205 3.20883 5.30997 3.07275 5.17086C2.93666 5.03174 2.82974 4.86685 2.75824 4.68585C2.68675 4.50485 2.65213 4.31139 2.65641 4.11683C2.66482 3.73494 2.82244 3.37152 3.0955 3.1044C3.36856 2.83729 3.73536 2.68771 4.11735 2.68771C4.49934 2.68771 4.86614 2.83729 5.1392 3.1044C5.41227 3.37152 5.56988 3.73494 5.57829 4.11683Z" fill="#CBCBCB"/>
</svg>
