<svg width="15" height="15" viewBox="0 0 15 15" fill="none" xmlns="http://www.w3.org/2000/svg">
<path d="M12.656 0.937482C12.283 0.937482 11.9254 1.08564 11.6616 1.34936C11.3979 1.61309 11.2498 1.97077 11.2498 2.34373C11.2498 2.71669 11.3979 3.07438 11.6616 3.3381C11.9254 3.60182 12.283 3.74998 12.656 3.74998C13.029 3.74998 13.3867 3.60182 13.6504 3.3381C13.9141 3.07438 14.0623 2.71669 14.0623 2.34373C14.0623 1.97077 13.9141 1.61309 13.6504 1.34936C13.3867 1.08564 13.029 0.937482 12.656 0.937482ZM10.3123 2.34373C10.3122 1.79382 10.5055 1.2614 10.8583 0.839617C11.2112 0.417831 11.7011 0.133541 12.2423 0.0364851C12.7836 -0.0605708 13.3418 0.0357879 13.8192 0.308703C14.2966 0.581617 14.6628 1.01371 14.8538 1.52938C15.0448 2.04505 15.0484 2.61146 14.864 3.12952C14.6796 3.64757 14.3188 4.08428 13.8449 4.36324C13.371 4.6422 12.8142 4.74564 12.2717 4.65547C11.7292 4.5653 11.2357 4.28725 10.8776 3.86998L4.57945 6.79498C4.72424 7.25383 4.72424 7.74613 4.57945 8.20498L10.8776 11.13C11.2562 10.6897 11.7848 10.4056 12.3609 10.3328C12.937 10.26 13.5196 10.4036 13.9959 10.7359C14.4721 11.0682 14.808 11.5655 14.9385 12.1313C15.069 12.6972 14.9848 13.2913 14.7022 13.7986C14.4196 14.3059 13.9587 14.6903 13.4089 14.8771C12.8591 15.064 12.2595 15.0401 11.7263 14.8101C11.1931 14.58 10.7643 14.1602 10.5229 13.632C10.2816 13.1039 10.2449 12.5049 10.4201 11.9512L4.12195 9.02623C3.81017 9.38958 3.39459 9.64873 2.93112 9.76881C2.46764 9.8889 1.97851 9.86416 1.52951 9.69793C1.08052 9.5317 0.693206 9.23195 0.419673 8.839C0.146141 8.44605 -0.000488281 7.97876 -0.000488281 7.49998C-0.000488281 7.0212 0.146141 6.55391 0.419673 6.16096C0.693206 5.76801 1.08052 5.46826 1.52951 5.30203C1.97851 5.1358 2.46764 5.11107 2.93112 5.23115C3.39459 5.35124 3.81017 5.61038 4.12195 5.97373L10.4201 3.04873C10.3484 2.82061 10.312 2.58286 10.3123 2.34373ZM2.34351 6.09373C1.97055 6.09373 1.61286 6.24189 1.34914 6.50561C1.08542 6.76934 0.937261 7.12702 0.937261 7.49998C0.937261 7.87294 1.08542 8.23063 1.34914 8.49435C1.61286 8.75807 1.97055 8.90623 2.34351 8.90623C2.71647 8.90623 3.07416 8.75807 3.33788 8.49435C3.6016 8.23063 3.74976 7.87294 3.74976 7.49998C3.74976 7.12702 3.6016 6.76934 3.33788 6.50561C3.07416 6.24189 2.71647 6.09373 2.34351 6.09373ZM12.656 11.25C12.283 11.25 11.9254 11.3981 11.6616 11.6619C11.3979 11.9256 11.2498 12.2833 11.2498 12.6562C11.2498 13.0292 11.3979 13.3869 11.6616 13.6506C11.9254 13.9143 12.283 14.0625 12.656 14.0625C13.029 14.0625 13.3867 13.9143 13.6504 13.6506C13.9141 13.3869 14.0623 13.0292 14.0623 12.6562C14.0623 12.2833 13.9141 11.9256 13.6504 11.6619C13.3867 11.3981 13.029 11.25 12.656 11.25Z" fill="#CBCBCB"/>
</svg>
